<svg xmlns="http://www.w3.org/2000/svg" xmlns:xlink="http://www.w3.org/1999/xlink" id="body_1" preserveAspectRatio="xMinYMin meet" viewBox="0 0 2244 3177"><defs><clipPath id="1"><path clip-rule="evenodd" d="M0 2383L0 -0.9399414L0 -0.9399414L1683.78 -0.9399414L1683.78 -0.9399414L1683.78 2383L1683.78 2383L0 2383z" /></clipPath><clipPath id="2"><path clip-rule="evenodd" d="M848.268 393.28L1639.842 393.28L1639.842 393.28L1639.842 43L1639.842 43L848.268 43z" /></clipPath><clipPath id="3"><path clip-rule="evenodd" d="M43.937 665.715L835.511 665.715L835.511 665.715L835.511 43L835.511 43L43.937 43z" /></clipPath><clipPath id="4"><path clip-rule="evenodd" d="M43.937 1204.553L835.511 1204.553L835.511 1204.553L835.511 678.4709L835.511 678.4709L43.937 678.4709z" /></clipPath><clipPath id="5"><path clip-rule="evenodd" d="M848.268 1204.553L1639.842 1204.553L1639.842 1204.553L1639.842 988.0439L1639.842 988.0439L848.268 988.0439z" /></clipPath><clipPath id="6"><path clip-rule="evenodd" d="M109.843 2149.684L417.402 2149.684L417.402 2149.684L417.402 2227.632L417.402 2227.632L109.843 2227.632z" /></clipPath><clipPath id="7"><path clip-rule="evenodd" d="M109.843 2227.632L417.402 2227.632L417.402 2227.632L417.402 2240.205L417.402 2240.205L109.843 2240.205z" /></clipPath><clipPath id="8"><path clip-rule="evenodd" d="M109.842 1634.708L351.496 1634.708L351.496 1634.708L351.496 1512.149L351.496 1512.149L109.842 1512.149z" /></clipPath><clipPath id="9"><path clip-rule="evenodd" d="M110.611 1781.965L351.496 1781.965L351.496 1781.965L351.496 1659.406L351.496 1659.406L110.611 1659.406z" /></clipPath><clipPath id="10"><path clip-rule="evenodd" d="M110.534 1927.803L351.319 1927.803L351.319 1927.803L351.319 1805.244L351.319 1805.244L110.534 1805.244z" /></clipPath><clipPath id="11"><path clip-rule="evenodd" d="M1255.039 1689.892L1346.861 1689.892L1346.861 1689.892L1346.861 1661.265L1346.861 1661.265L1255.039 1661.265z" /></clipPath><clipPath id="12"><path clip-rule="evenodd" d="M0 2383L1683.78 2383L1683.78 2383L1683.78 -0.9370117L1683.78 -0.9370117L0 -0.9370117z" /></clipPath><clipPath id="13"><path clip-rule="evenodd" d="M1145.71 1654.265L1255.54 1654.265L1255.54 1654.265L1255.54 1690.892L1255.54 1690.892L1145.71 1690.892z" /></clipPath><clipPath id="14"><path clip-rule="evenodd" d="M1154.714 1689.892L1246.535 1689.892L1246.535 1689.892L1246.535 1661.265L1246.535 1661.265L1154.714 1661.265z" /></clipPath><clipPath id="15"><path clip-rule="evenodd" d="M1049.528 1540.776L1141.349 1540.776L1141.349 1540.776L1141.349 1512.149L1141.349 1512.149L1049.528 1512.149z" /></clipPath><clipPath id="16"><path clip-rule="evenodd" d="M0 2383L1683.78 2383L1683.78 2383L1683.78 -0.9370117L1683.78 -0.9370117L0 -0.9370117z" /></clipPath><clipPath id="17"><path clip-rule="evenodd" d="M1145.71 1820.103L1255.54 1820.103L1255.54 1820.103L1255.54 1856.731L1255.54 1856.731L1145.71 1856.731z" /></clipPath><clipPath id="18"><path clip-rule="evenodd" d="M1154.714 1855.731L1246.535 1855.731L1246.535 1855.731L1246.535 1827.104L1246.535 1827.104L1154.714 1827.104z" /></clipPath><clipPath id="19"><path clip-rule="evenodd" d="M1346.36 1820.103L1456.19 1820.103L1456.19 1820.103L1456.19 1856.731L1456.19 1856.731L1346.36 1856.731z" /></clipPath><clipPath id="20"><path clip-rule="evenodd" d="M1355.365 1855.731L1447.186 1855.731L1447.186 1855.731L1447.186 1827.104L1447.186 1827.104L1355.365 1827.104z" /></clipPath><clipPath id="21"><path clip-rule="evenodd" d="M1246.04 1820.103L1355.86 1820.103L1355.86 1820.103L1355.86 1856.731L1355.86 1856.731L1246.04 1856.731z" /></clipPath><clipPath id="22"><path clip-rule="evenodd" d="M1255.039 1855.731L1346.861 1855.731L1346.861 1855.731L1346.861 1827.104L1346.861 1827.104L1255.039 1827.104z" /></clipPath><clipPath id="23"><path clip-rule="evenodd" d="M1455.69 1855.731L1547.512 1855.731L1547.512 1855.731L1547.512 1827.104L1547.512 1827.104L1455.69 1827.104z" /></clipPath><clipPath id="24"><path clip-rule="evenodd" d="M0 -0.9399414L1683.78 -0.9399414L1683.78 -0.9399414L1683.78 2383L1683.78 2383L0 2383z" /></clipPath><clipPath id="25"><path clip-rule="evenodd" d="M109.842 284.6541L678.789 284.6541L678.789 284.6541L678.789 84.56201L678.789 84.56201L109.842 84.56201z" /></clipPath></defs><g transform="matrix(1.333333 0 0 1.333333 0 0)"><g clip-path="url(#1)"><path transform="matrix(1 0 0 -1 0 2383)" d="M43.937 43.937L1639.843 43.937L1639.843 1165.691L43.937 1165.691z" stroke="none" fill="#000000" fill-rule="nonzero" /><g clip-path="url(#2)"><g transform="matrix(-1.47391 0 0 1.473932 1641.095 41.01196)"><g transform="matrix(1 0 0 1 0 0)"><image x="0" y="0" xlink:href="img_01.png" width="539" height="240" /></g></g></g><path transform="matrix(1 0 0 -1 0 2383)" d="" stroke="#F8B513" stroke-width="12.466" fill="none" /><path transform="matrix(1 0 0 -1 0 2383)" d="M848.268 1407.712L1639.843 1407.712L1639.843 1976.964L848.268 1976.964z" stroke="none" fill="#000000" fill-rule="nonzero" /><g clip-path="url(#3)"><g transform="matrix(2.150646 0 0 2.15405 42.34803 43)"><g transform="matrix(1 0 0 1 0 0)"><image x="0" y="0" xlink:href="img_02.png" width="370" height="290" /></g></g></g><g clip-path="url(#4)"><g transform="matrix(1.99973 0 0 1.996854 41.8599 675.5198)"><g transform="matrix(1 0 0 1 0 0)"><image x="0" y="0" xlink:href="img_03.png" width="398" height="266" /></g></g></g><g clip-path="url(#5)"><g transform="matrix(1.481846 0 0 1.480765 846.6022 986.6252)"><g transform="matrix(1 0 0 1 0 0)"><image x="0" y="0" xlink:href="img_04.png" width="536" height="148" /></g></g></g><path transform="matrix(1 0 0 -1 0 2383)" d="M892.205 1461.26L1595.906 1461.26L1595.906 1933.027L892.205 1933.027z" stroke="none" fill="#000000" fill-rule="nonzero" /><g clip-path="url(#6)"><g transform="matrix(0.9985684 0 0 0.9993359 109.8425 2149.684)"><g transform="matrix(1 0 0 1 0 0)"><image x="0" y="0" xlink:href="img_05.png" width="308" height="78" /></g></g></g><g clip-path="url(#7)"><g transform="matrix(0.9985684 0 0 0.9670992 109.8425 2227.632)"><g transform="matrix(1 0 0 1 0 0)"><image x="0" y="0" xlink:href="img_06.png" width="308" height="13" /></g></g></g><path transform="matrix(1 0 0 -1 0 2383)" d="M892.492 1532.259L1595.618 1532.259L1595.618 1545.015L892.492 1545.015z" stroke="none" fill="#F7B512" fill-rule="nonzero" /><path transform="matrix(1 0 0 -1 0 2383)" d="M892.492 1451.649L1126.867 1451.649L1126.867 1464.405L892.492 1464.405z" stroke="none" fill="#454847" fill-rule="nonzero" /><path transform="matrix(1 0 0 -1 0 2383)" d="M1126.867 1451.649L1361.242 1451.649L1361.242 1464.405L1126.867 1464.405z" stroke="none" fill="#E8382F" fill-rule="nonzero" /><path transform="matrix(1 0 0 -1 0 2383)" d="M1361.243 1451.649L1595.618 1451.649L1595.618 1464.405L1361.243 1464.405z" stroke="none" fill="#F7B512" fill-rule="nonzero" /><path transform="matrix(1 0 0 -1 0 2383)" d="M110.2739 384.0928L110.2739 344.6168L137.4879 364.4168z" stroke="none" fill="#F7B512" fill-rule="nonzero" /><path transform="matrix(1 0 0 -1 0 2383)" d="M914.1732 518.6002L1547.511 518.6002" stroke="#E7382F" stroke-width="6" fill="none" /><path transform="matrix(1 0 0 -1 0 2383)" d="M914.1732 684.4389L1346.86 684.4389" stroke="#AAABAB" stroke-width="6" fill="none" /><path transform="matrix(1 0 0 -1 0 2383)" d="M914.1732 833.5542L1148.031 833.5542" stroke="#F7B512" stroke-width="6" fill="none" /><path transform="matrix(1 0 0 -1 0 2383)" d="M1148.031 870.8506L1148.031 455.1966" stroke="#FFFFFE" stroke-width="3" fill="none" /><g clip-path="url(#8)"><g transform="matrix(1.645921 0 0 1.649271 108.1544 1510.806)"><g transform="matrix(1 0 0 1 0 0)"><image x="0" y="0" xlink:href="img_07.png" width="149" height="76" /></g></g></g><path transform="matrix(1 0 0 -1 0 2383)" d="M110.842 749.291L350.496 749.291L350.496 749.291L350.496 869.85L350.496 869.85L110.842 869.85z" stroke="#F7B512" stroke-width="2" fill="none" /><g clip-path="url(#9)"><g transform="matrix(1.459936 0 0 1.467143 110.6109 1658.335)"><g transform="matrix(1 0 0 1 0 0)"><image x="0" y="0" xlink:href="img_08.png" width="166" height="85" /></g></g></g><path transform="matrix(1 0 0 -1 0 2383)" d="M110.843 602.035L350.496 602.035L350.496 602.035L350.496 722.595L350.496 722.595L110.843 722.595z" stroke="#F7B512" stroke-width="2" fill="none" /><g clip-path="url(#10)"><g transform="matrix(1.247804 0 0 1.248734 110.5336 1803.924)"><g transform="matrix(1 0 0 1 0 0)"><image x="0" y="0" xlink:href="img_09.png" width="194" height="101" /></g></g></g><path transform="matrix(1 0 0 -1 0 2383)" d="M110.843 456.196L350.319 456.196L350.319 456.196L350.319 576.755L350.319 576.755L110.843 576.755z" stroke="#F7B512" stroke-width="2" fill="none" /><g clip-path="url(#11)"><g transform="matrix(0.9999419 0 0 0.9717745 1255.039 1660.739)"><g transform="matrix(1 0 0 1 0 0)"><image x="0" y="0" xlink:href="img_10.png" width="92" height="30" /></g></g></g><g clip-path="url(#12)"><g><g clip-path="url(#13)"><g clip-path="url(#14)"><g transform="matrix(0.9999419 0 0 0.9717745 1154.714 1660.739)"><g transform="matrix(1 0 0 1 0 0)"><image x="0" y="0" xlink:href="img_10.png" width="92" height="30" /></g></g></g></g></g></g><g clip-path="url(#15)"><g transform="matrix(0.9999419 0 0 0.9717745 1049.528 1511.623)"><g transform="matrix(1 0 0 1 0 0)"><image x="0" y="0" xlink:href="img_11.png" width="92" height="30" /></g></g></g><g clip-path="url(#16)"><g><g clip-path="url(#17)"><g clip-path="url(#18)"><g transform="matrix(0.9999419 0 0 0.9717745 1154.714 1826.577)"><g transform="matrix(1 0 0 1 0 0)"><image x="0" y="0" xlink:href="img_12.png" width="92" height="30" /></g></g></g></g></g><g><g clip-path="url(#19)"><g clip-path="url(#20)"><g transform="matrix(0.9999419 0 0 0.9717745 1355.365 1826.577)"><g transform="matrix(1 0 0 1 0 0)"><image x="0" y="0" xlink:href="img_12.png" width="92" height="30" /></g></g></g></g></g><g><g clip-path="url(#21)"><g clip-path="url(#22)"><g transform="matrix(0.9999419 0 0 0.9717745 1255.039 1826.577)"><g transform="matrix(1 0 0 1 0 0)"><image x="0" y="0" xlink:href="img_12.png" width="92" height="30" /></g></g></g></g></g></g><g clip-path="url(#23)"><g transform="matrix(0.9999419 0 0 0.9717745 1455.69 1826.577)"><g transform="matrix(1 0 0 1 0 0)"><image x="0" y="0" xlink:href="img_12.png" width="92" height="30" /></g></g></g><g clip-path="url(#24)"><path transform="matrix(1 0 0 -1 0 2383)" d="M109.842 2098.347L678.788 2098.347L678.788 2398.111L109.842 2398.111z" stroke="none" fill="#F7B512" fill-rule="nonzero" /><g clip-path="url(#25)"><g transform="matrix(2.818193 0 0 2.818193 109.8425 84.56152)"><g transform="matrix(1 0 0 1 0 0)"><image x="0" y="0" xlink:href="img_13.png" width="202" height="71" /></g></g></g></g></g></g></svg>